<?xml version="1.0" encoding="UTF-8"?>
<svg id="Layer_1" xmlns="http://www.w3.org/2000/svg" version="1.1" viewBox="0 0 96 96">
  <!-- Generator: Adobe Illustrator 29.2.1, SVG Export Plug-In . SVG Version: 2.1.0 Build 116)  -->
  <defs>
    <style>
      .st0 {
        fill: #4e5aee;
      }

      .st1 {
        fill: #b2db4b;
      }

      .st2 {
        fill: #071351;
      }

      .st3 {
        fill: none;
      }

      .st4 {
        fill: #e0e0e0;
      }

      .st5 {
        fill: #ff94b6;
      }

      .st6 {
        fill: #abb3ef;
      }

      .st7 {
        fill: #f7e8e2;
      }

      .st8 {
        fill: #f3f3f3;
      }
    </style>
  </defs>
  <g>
    <rect class="st6" x="40.1" y="-129" width="54.1" height="54.1"/>
    <rect class="st0" x="-25" y="-129" width="54.1" height="54.1"/>
    <rect class="st2" x="-90" y="-129" width="54.1" height="54.1"/>
    <rect class="st5" x="105.1" y="-129" width="54.1" height="54.1"/>
  </g>
  <g>
    <path class="st0" d="M-15.3-42.4c0-2-1.3-3.3-3.3-3.3h-73.4c-2,0-3.3,1.2-3.3,3.3V11H-15.3v-53.4Z"/>
    <g>
      <path class="st0" d="M-102.5,11v4c0,2,2.6,3.9,5.1,3.9H-13c2.4,0,5-1.8,5-3.9v-4h-94.5Z"/>
      <path class="st0" d="M-13.2,19.3h-84.4c-2.5,0-5.4-1.8-5.4-4.2v-4c0-.2.2-.3.3-.3H-8.4c.2,0,.3.2.3.3v4c0,2.4-2.9,4.2-5.4,4.2h.3ZM-102.2,11.4v3.7c0,1.7,2.3,3.6,4.6,3.6H-13.2c2.4,0,4.6-1.7,4.6-3.6v-3.7h-93.6Z"/>
    </g>
    <g>
      <rect class="st8" x="-90.4" y="-41.3" width="70" height="47.4"/>
      <path class="st2" d="M-20.4,6.4h-70c-.2,0-.3-.2-.3-.3v-47.4c0-.2.2-.3.3-.3H-20.4c.2,0,.3.2.3.3V6.1c0,.2-.2.3-.3.3ZM-90,5.6H-20.8v-46.6h-69.2V5.6Z"/>
    </g>
    <rect class="st2" x="-59.9" y="15" width="8.9" height=".8"/>
    <rect class="st8" x="-87.2" y="-38.1" width="63.5" height="3.2"/>
    <rect class="st4" x="-87.2" y="-33.1" width="7.2" height="22.3"/>
    <rect class="st4" x="-77.8" y="-33.1" width="38.3" height="33.1"/>
    <rect class="st4" x="-87.2" y="-9" width="7.2" height="11.1"/>
    <rect class="st4" x="-37.3" y="-33.1" width="13.7" height="15.4"/>
    <rect class="st4" x="-37.3" y="-14.8" width="13.7" height="16.9"/>
    <rect class="st1" x="-87.2" y="-33.1" width="7.2" height="2.2"/>
    <rect class="st1" x="-87.2" y="-10.9" width="7.2" height="4"/>
    <rect class="st1" x="-37.3" y="-33.1" width="13.7" height="2.2"/>
    <rect class="st1" x="-37.3" y="-14.8" width="13.7" height="2.2"/>
    <rect class="st1" x="-78.2" y="-33.1" width="38.8" height="2.2"/>
    <g>
      <rect class="st0" x="-73.2" y="-50.5" width="11" height="55"/>
      <rect class="st2" x="-69.9" y=".2" width="7.3" height=".6"/>
      <rect class="st2" x="-67.2" y="-3.9" width="4.7" height=".6"/>
      <rect class="st2" x="-69.9" y="-8.4" width="7.3" height=".6"/>
      <rect class="st2" x="-67.3" y="-13.4" width="4.7" height=".6"/>
      <rect class="st2" x="-69.9" y="-17.5" width="7.3" height=".6"/>
      <rect class="st2" x="-67.3" y="-24.2" width="4.7" height=".6"/>
      <rect class="st2" x="-69.8" y="-28.3" width="7.3" height=".6"/>
      <rect class="st2" x="-67.2" y="-32.9" width="4.7" height=".6"/>
      <rect class="st2" x="-69.8" y="-37.8" width="7.3" height=".6"/>
      <rect class="st2" x="-67.3" y="-41.9" width="4.7" height=".6"/>
      <rect class="st2" x="-69.8" y="-46.9" width="7.3" height=".6"/>
      <rect class="st2" x="-62.5" y="-50.4" width=".6" height="55"/>
      <rect class="st0" x="-58.7" y="-3" width="7.3" height="7.5"/>
      <polyline class="st6" points="-58.7 -3 -58.7 -43.8 -51.4 -43.8 -51.4 -3"/>
      <path class="st2" d="M-51.1-3h-.6v-40.5h-6.7V-3h-.6v-40.8c0-.2.2-.3.3-.3h7.3c.2,0,.3.2.3.3V-3.1h0Z"/>
      <line class="st3" x1="-58.7" y1="0" x2="-51.4" y2="0"/>
      <rect class="st2" x="-58.7" y="-.8" width="7.3" height="2"/>
      <g>
        <polygon class="st2" points="-55.2 -53 -56.9 -48.5 -53.3 -48.5 -55.2 -53"/>
        <path class="st2" d="M-53.3-48.2h-3.6s-.2,0-.3-.2v-.3l1.7-4.4s.2-.2.3-.2.3,0,.3.2l1.7,4.4v.3s-.2.2-.3.2h.2ZM-56.5-48.9h2.6l-1.3-3.2-1.3,3.2Z"/>
      </g>
      <polygon class="st6" points="-56.9 -48.5 -58.7 -43.8 -51.4 -43.8 -53.3 -48.5 -56.9 -48.5"/>
      <path class="st2" d="M-51.4-43.5h-7.3s-.2,0-.3-.2v-.3l1.8-4.7s.2-.2.3-.2h3.6s.3,0,.3.2l1.8,4.7v.3s-.2.2-.3.2h.1ZM-58.2-44.1h6.4l-1.7-4.1h-3.1l-1.6,4.1h0-.1Z"/>
      <rect class="st2" x="-55.7" y="-43.7" width=".6" height="36.6"/>
      <rect class="st2" x="-45.4" y="1.1" width="4.1" height="4.1"/>
      <rect class="st5" x="-47.2" y="-47.9" width="7.5" height="36.6"/>
      <rect class="st0" x="-47.2" y="-11.3" width="7.5" height="12.1"/>
      <path class="st2" d="M-39.8,1.1h-7.5c-.2,0-.3-.2-.3-.3v-12.1c0-.2.2-.3.3-.3h7.5c.2,0,.3.2.3.3V.8c0,.2-.2.3-.3.3ZM-47,.4h6.9v-11.4h-6.9V.4Z"/>
      <rect class="st6" x="-44.4" y="-45.3" width="2.5" height="12.4"/>
      <rect class="st2" x="-44.4" y="-39.6" width="2.5" height=".6"/>
      <rect class="st2" x="-45.5" y="4.9" width="4.1" height=".6"/>
      <polygon class="st2" points="-47.2 -47.9 -43.4 -54.4 -39.7 -47.9 -47.2 -47.9"/>
      <path class="st2" d="M-39.7-47.6h-7.5s-.2,0-.3-.2v-.3l3.9-6.6s.2-.2.3-.2h0s.2,0,.3.2l3.8,6.6v.3s-.2.2-.3.2h-.2ZM-46.7-48.2h6.5l-3.2-5.5-3.2,5.5h0Z"/>
      <rect class="st2" x="-47.4" y="-2.1" width="3.9" height=".6"/>
    </g>
  </g>
  <g>
    <rect class="st6" x="-323.2" y="60.4" width="62.6" height="62.6"/>
    <rect class="st0" x="-398.4" y="60.4" width="62.6" height="62.6"/>
    <rect class="st7" x="-97.6" y="60.4" width="62.6" height="62.6"/>
    <rect class="st1" x="-172.8" y="60.4" width="62.6" height="62.6"/>
    <rect class="st2" x="-473.6" y="60.4" width="62.6" height="62.6"/>
    <rect class="st5" x="-248" y="60.4" width="62.6" height="62.6"/>
  </g>
  <g>
    <g>
      <path class="st6" d="M53.4,9.8c0-3-2.4-5.4-5.4-5.4-3,0-5.4,2.4-5.4,5.4,0,3,2.4,5.4,5.4,5.4,3,0,5.4-2.4,5.4-5.4Z"/>
      <path class="st6" d="M15.7,9.7c0-3-2.4-5.4-5.4-5.4-3,0-5.4,2.4-5.4,5.4,0,3,2.4,5.4,5.4,5.4,3,0,5.4-2.4,5.4-5.4Z"/>
      <path class="st6" d="M15.7,47.4c0-3-2.4-5.4-5.4-5.4-3,0-5.4,2.4-5.4,5.4,0,3,2.4,5.4,5.4,5.4,3,0,5.4-2.4,5.4-5.4Z"/>
      <path class="st6" d="M91.1,9.8c0-3-2.4-5.4-5.4-5.4-3,0-5.4,2.4-5.4,5.4,0,3,2.4,5.4,5.4,5.4,3,0,5.4-2.4,5.4-5.4Z"/>
      <path class="st6" d="M91.1,47.5c0-3-2.4-5.4-5.4-5.4-3,0-5.4,2.4-5.4,5.4,0,3,2.4,5.4,5.4,5.4,3,0,5.4-2.4,5.4-5.4Z"/>
      <path class="st0" d="M85.7,48.5h0c-.6,0-1-.5-1-1,0-20.2-16.4-36.7-36.6-36.7h0c-20.2,0-36.6,16.4-36.7,36.6,0,.6-.5,1-1,1h0c-.6,0-1-.5-1-1,0-10.3,4-20.1,11.4-27.4,7.3-7.3,17-11.3,27.4-11.3h0c21.4,0,38.7,17.4,38.7,38.8,0,.6-.5,1-1,1Z"/>
      <path class="st0" d="M85.7,10.8H10.3c-.6,0-1-.5-1-1.1,0-.6.5-1,1-1h75.4c.6,0,1,.5,1,1.1s-.5,1-1,1Z"/>
    </g>
    <path class="st5" d="M48,26s-9.5,16.1-17.3,29.6c0,0,7.3,8.1,7.3,17.7h9.9s9.9,0,9.9,0c0-9.6,7.4-17.7,7.4-17.7-7.8-13.6-17.3-29.7-17.3-29.7Z"/>
    <path class="st2" d="M48,48.5h0c-.6,0-1-.5-1-1v-21.5c0-.6.5-1,1.1-1h0c.6,0,1,.5,1,1v21.5c0,.6-.5,1-1.1,1Z"/>
    <path class="st2" d="M51.9,50.9c0-2.2-1.7-3.9-3.9-3.9-2.2,0-3.9,1.7-3.9,3.9,0,2.2,1.7,3.9,3.9,3.9,2.2,0,3.9-1.7,3.9-3.9Z"/>
    <path class="st1" d="M59.5,91.7h0c-.6,0-1-.5-1-1v-16.3s-20.9,0-20.9,0v16.3c0,.6-.5,1-1.1,1h0c-.6,0-1-.5-1-1v-17.4c0-.6.5-1,1.1-1h23c.3,0,.5.1.7.3.2.2.3.5.3.7v17.4c0,.6-.5,1-1.1,1Z"/>
  </g>
</svg>