<?xml version="1.0" encoding="UTF-8"?>
<svg id="Layer_1" xmlns="http://www.w3.org/2000/svg" version="1.1" viewBox="0 0 96 96">
  <!-- Generator: Adobe Illustrator 29.2.1, SVG Export Plug-In . SVG Version: 2.1.0 Build 116)  -->
  <defs>
    <style>
      .st0 {
        fill: #4e5aee;
      }

      .st1 {
        fill: #b2db4b;
      }

      .st2 {
        fill: #071351;
      }

      .st3 {
        fill: #ff94b6;
      }

      .st4 {
        fill: #abb3ef;
      }

      .st5 {
        fill: #f7e8e2;
      }
    </style>
  </defs>
  <g>
    <rect class="st4" x="-623.5" y="-310" width="149" height="149"/>
    <rect class="st0" x="-802.6" y="-310" width="149" height="149"/>
    <rect class="st5" x="-86.4" y="-310" width="149" height="149"/>
    <rect class="st1" x="-265.5" y="-310" width="149" height="149"/>
    <rect class="st2" x="-981.6" y="-310" width="149" height="149"/>
    <rect class="st3" x="-444.5" y="-310" width="149" height="149"/>
  </g>
  <g>
    <path class="st3" d="M4.5,11.2h7c.5,0,.8.4.8.8v7c0,.5-.4.8-.8.8h-7c-.5,0-.8-.4-.8-.8v-7c0-.5.4-.8.8-.8Z"/>
    <path class="st3" d="M57.4,11.2h7c.5,0,.8.4.8.8v7c0,.5-.4.8-.8.8h-7c-.5,0-.8-.4-.8-.8v-7c0-.5.4-.8.8-.8Z"/>
    <path class="st3" d="M4.5,64.1h7c.5,0,.8.4.8.8v7c0,.5-.4.8-.8.8h-7c-.5,0-.8-.4-.8-.8v-7c0-.5.4-.8.8-.8Z"/>
    <path class="st3" d="M57.4,64.1h7c.5,0,.8.4.8.8v7c0,.5-.4.8-.8.8h-7c-.5,0-.8-.4-.8-.8v-7c0-.5.4-.8.8-.8Z"/>
    <path class="st2" d="M60.9,69.3H8c-.5,0-.9-.4-.9-.9V15.5c0-.5.4-.9.9-.9h52.9c.5,0,.9.4.9.9v52.9c0,.5-.4.9-.9.9ZM8.9,67.5h51.1V16.4H8.9v51.1Z"/>
    <g>
      <rect class="st0" x="31.8" y="35.2" width="59.6" height="49.6" rx="6.5" ry="6.5"/>
      <path class="st4" d="M91.4,73.5H31.8c-.5,0-.9-.4-.9-.9s.4-.9.9-.9h59.6c.5,0,.9.4.9.9s-.4.9-.9.9Z"/>
      <path class="st4" d="M68.5,73.5c-.3,0-.7-.2-.8-.5l-12.4-26.4-12.4,26.4c-.2.5-.7.6-1.2.4-.5-.2-.6-.7-.4-1.2l13.2-28.1c.1-.3.5-.5.8-.5s.7.2.8.5l13.2,28.1c.2.5,0,1-.4,1.2-.1,0-.3,0-.4,0Z"/>
      <path class="st4" d="M87.1,73.5c-.3,0-.7-.2-.8-.5l-11.2-23-10,14.5c-.3.4-.8.5-1.3.2-.4-.3-.5-.8-.2-1.3l10.8-15.8c.2-.3.5-.4.8-.4.3,0,.6.2.7.5l11.8,24.4c.2.4,0,1-.4,1.2-.1,0-.3,0-.4,0Z"/>
      <path class="st1" d="M69.9,45.5c0-1.5-1.2-2.7-2.7-2.7s-2.7,1.2-2.7,2.7,1.2,2.7,2.7,2.7,2.7-1.2,2.7-2.7Z"/>
    </g>
  </g>
</svg>