<?xml version="1.0" encoding="UTF-8"?>
<svg id="Layer_1" xmlns="http://www.w3.org/2000/svg" version="1.1" viewBox="0 0 96 96">
  <!-- Generator: Adobe Illustrator 29.2.1, SVG Export Plug-In . SVG Version: 2.1.0 Build 116)  -->
  <defs>
    <style>
      .st0 {
        fill: #4e5aee;
      }

      .st1 {
        fill: #b2db4b;
      }

      .st2 {
        fill: #071351;
      }

      .st3 {
        fill: #003bdf;
      }

      .st4 {
        fill: #ff94b6;
      }

      .st5 {
        fill: #abb3ef;
      }

      .st6 {
        fill: #f7e8e2;
      }
    </style>
  </defs>
  <path class="st3" d="M41.6,77.4h-.2c-.5,0-.8-.6-.7-1l2.6-12.9c0-.5.6-.8,1-.7.5,0,.8.6.7,1l-2.6,12.9c0,.4-.5.7-.9.7,0,0,0,0,.1,0Z"/>
  <path class="st2" d="M65.3,81.9h-30.7c-1.2,0-2-1.4-1.2-2.4h0c1.1-1.5,3.1-2.4,5.2-2.4h22.6c2.1,0,4.1.9,5.2,2.4h0c.8,1,0,2.4-1.2,2.4h0Z"/>
  <rect class="st5" x="1.4" y="0" width="93.1" height="63.6" rx="7.9" ry="7.9"/>
  <path class="st2" d="M90,55.3H6c-.5,0-.9-.4-.9-.9V9.2c0-.5.4-.9.9-.9h83.9c.5,0,.9.4.9.9v45.2c0,.5-.4.9-.9.9h0ZM7,53.5h82.1V10.1H7v43.3h0Z"/>
  <path class="st3" d="M57.3,78c-.4,0-.8-.3-.9-.7l-2.8-13.5c0-.5.2-1,.7-1.1s1,.2,1.1.7l2.8,13.5c0,.5-.2,1-.7,1.1h-.2Z"/>
  <g>
    <path class="st4" d="M-129.1,16.3c-5.3-5.3-10.3-8.7-22.8,3.7-7.3,7.3-9,17.5-3.7,22.8s15.5,3.6,22.8-3.7c13-13,9-17.5,3.7-22.8ZM-135.8,23c-.9-.9-.4-2.7,1-4.1s3.2-1.8,4.1-1c.9.9.4,2.7-1,4.1s-3.2,1.8-4.1,1Z"/>
    <path class="st1" d="M-131.7,22c-1.4,1.4-3.2,1.8-4.1,1-.9-.9-.4-2.7,1-4.1s3.2-1.8,4.1-1c.9.9.4,2.7-1,4.1Z"/>
    <path class="st2" d="M-128.1,34.6c-.2,0-.4,0-.5-.2l-18.8-18.8c-.3-.3-.3-.8,0-1.1s.8-.3,1.1,0l18.8,18.8c.3.3.3.8,0,1.1s-.3.2-.5.2h-.1Z"/>
    <path class="st2" d="M-130.7,18.6c-.2,0-.4,0-.5-.2-.3-.3-.3-.8,0-1.1l6.2-6.2c.3-.3.8-.3,1.1,0s.3.8,0,1.1l-6.2,6.2s-.3.2-.5.2h0Z"/>
    <path class="st2" d="M-137.4,25.4c-.2,0-.4,0-.5-.2-.3-.3-.3-.8,0-1.1l1.7-1.7c.3-.3.8-.3,1.1,0s.3.8,0,1.1l-1.7,1.7c-.1,0-.3.2-.5.2h-.1Z"/>
  </g>
  <g>
    <rect class="st5" x="32.2" y="-78" width="54" height="54"/>
    <rect class="st0" x="-32.7" y="-78" width="54" height="54"/>
    <rect class="st6" x="226.8" y="-78" width="54" height="54"/>
    <rect class="st1" x="161.9" y="-78" width="54" height="54"/>
    <rect class="st2" x="-97.6" y="-78" width="54" height="54"/>
    <rect class="st4" x="97.1" y="-78" width="54" height="54"/>
  </g>
  <path class="st0" d="M15.1,92.3l34.6-34.6c1.3-1.3,2.2-3,2.5-5.1l1.4-8.1-2.1-2.1-8.1,1.4c-2,.3-3.8,1.2-5.1,2.5L3.7,80.9l11.5,11.5h0Z"/>
  <path class="st4" d="M27.3,73.8c-.4,0-.8-.2-1.1-.5l-3.9-3.9c-.6-.6-.6-1.6,0-2.3l11.2-11.2c.3-.3.7-.5,1.1-.5h0c.4,0,.8.2,1.1.5l3.9,3.9c.6.6.6,1.6,0,2.3l-11.2,11.2c-.3.3-.7.5-1.1.5ZM23.9,68.3l3.3,3.3,10.7-10.7-3.3-3.3s-10.7,10.7-10.7,10.7ZM34.3,57.3h0Z"/>
  <path class="st0" d="M52.3,52.6l1.4-8.1-2.1-2.1-8.1,1.4c-2,.3-3.8,1.2-5.1,2.5l11.5,11.5c1.3-1.3,2.2-3,2.5-5.1h-.1Z"/>
  <path class="st1" d="M15.1,92.3l-2.3,2.3c-1.8,1.8-4.6,1.8-6.4,0l-5.1-5.1c-1.8-1.8-1.8-4.6,0-6.4l2.3-2.3,11.5,11.5h0Z"/>
  <rect class="st4" x="52.4" y="42" width="1.2" height="2" transform="translate(-14.9 50.1) rotate(-45)"/>
  <rect class="st4" x="7.8" y="77.1" width="5.9" height="16.2" transform="translate(-57.1 32.6) rotate(-45)"/>
</svg>